HIERARCHY
ROOT Hips
{
	OFFSET 0.000000 0.000000 0.000000
	CHANNELS 6 Xposition Yposition Zposition Xrotation Yrotation Zrotation
	JOINT LeftUpLeg_virtual
	{
		OFFSET 0.000000 0.000000 0.000000
		CHANNELS 3 Xrotation Yrotation Zrotation
		JOINT LeftUpLeg
		{
			OFFSET 11.394100 -6.187798 -0.413800
			CHANNELS 3 Xrotation Yrotation Zrotation
			JOINT LeftLeg
			{
				OFFSET 0.430247 -32.302673 3.732800
				CHANNELS 3 Xrotation Yrotation Zrotation
				JOINT LeftFoot
				{
					OFFSET -0.430247 -48.264931 -6.423300
					CHANNELS 3 Xrotation Yrotation Zrotation
					JOINT LeftToeBase
					{
						OFFSET 4.230900 -16.068199 23.438400
						CHANNELS 3 Xrotation Yrotation Zrotation
						JOINT LeftToe_End
						{
							OFFSET 4.510700 0.695400 19.974600
							CHANNELS 3 Xrotation Yrotation Zrotation
							End Site
							{
								OFFSET 0 0 0
							}
						}
					}
				}
			}
		}
	}
	JOINT RightUpLeg_virtual
	{
		OFFSET 0.000000 0.000000 0.000000
		CHANNELS 3 Xrotation Yrotation Zrotation
		JOINT RightUpLeg
		{
			OFFSET -11.333700 -6.187798 -0.413800
			CHANNELS 3 Xrotation Yrotation Zrotation
			JOINT RightLeg
			{
				OFFSET -0.430392 -32.302628 3.733000
				CHANNELS 3 Xrotation Yrotation Zrotation
				JOINT RightFoot
				{
					OFFSET 0.430392 -48.264973 -6.423500
					CHANNELS 3 Xrotation Yrotation Zrotation
					JOINT RightToeBase
					{
						OFFSET -4.230900 -16.068199 23.438400
						CHANNELS 3 Xrotation Yrotation Zrotation
						JOINT RightToe_End
						{
							OFFSET -4.510700 0.695400 19.974600
							CHANNELS 3 Xrotation Yrotation Zrotation
							End Site
							{
								OFFSET 0 0 0
							}
						}
					}
				}
			}
		}
	}
	JOINT Spine_virtual
	{
		OFFSET 0.000000 0.000000 0.000000
		CHANNELS 3 Xrotation Yrotation Zrotation
		JOINT Spine
		{
			OFFSET -0.002400 12.777504 0.315300
			CHANNELS 3 Xrotation Yrotation Zrotation
			JOINT Spine1
			{
				OFFSET -0.002067 5.816869 0.032633
				CHANNELS 3 Xrotation Yrotation Zrotation
				JOINT Spine1_split
				{
					OFFSET -0.002067 5.816869 0.032633
					CHANNELS 3 Xrotation Yrotation Zrotation
					JOINT Spine2
					{
						OFFSET -0.002067 5.816869 0.032633
						CHANNELS 3 Xrotation Yrotation Zrotation
						JOINT Neck_virtual
						{
							OFFSET 0.000000 0.000000 0.000000
							CHANNELS 3 Xrotation Yrotation Zrotation
							JOINT Neck
							{
								OFFSET -0.003700 21.199493 -0.826900
								CHANNELS 3 Xrotation Yrotation Zrotation
								JOINT Head
								{
									OFFSET 0.000000 20.442200 4.834800
									CHANNELS 3 Xrotation Yrotation Zrotation
									JOINT HeadTop_End
									{
										OFFSET 0.000000 34.668396 4.968400
										CHANNELS 3 Xrotation Yrotation Zrotation
										End Site
										{
											OFFSET 0 0 0
										}
									}
								}
							}
						}
						JOINT LeftShoulder_virtual
						{
							OFFSET 0.000000 0.000000 0.000000
							CHANNELS 3 Xrotation Yrotation Zrotation
							JOINT LeftShoulder
							{
								OFFSET 3.288150 8.794197 -1.372250
								CHANNELS 3 Xrotation Yrotation Zrotation
								JOINT LeftShoulder_split
								{
									OFFSET 3.288150 8.794197 -1.372250
									CHANNELS 3 Xrotation Yrotation Zrotation
									JOINT LeftArm
									{
										OFFSET 11.953299 -2.279007 -0.146200
										CHANNELS 3 Xrotation Yrotation Zrotation
										JOINT LeftForeArm
										{
											OFFSET 18.448900 0.000000 0.000000
											CHANNELS 3 Xrotation Yrotation Zrotation
											JOINT LeftHand
											{
												OFFSET 29.527798 0.000000 0.000000
												CHANNELS 3 Xrotation Yrotation Zrotation
												End Site
												{
													OFFSET 0 0 0
												}
											}
										}
									}
								}
							}
						}
						JOINT RightShoulder_virtual
						{
							OFFSET 0.000000 0.000000 0.000000
							CHANNELS 3 Xrotation Yrotation Zrotation
							JOINT RightShoulder
							{
								OFFSET -3.249400 8.794197 -1.372250
								CHANNELS 3 Xrotation Yrotation Zrotation
								JOINT RightShoulder_split
								{
									OFFSET -3.249400 8.794197 -1.372250
									CHANNELS 3 Xrotation Yrotation Zrotation
									JOINT RightArm
									{
										OFFSET -11.953299 -2.279007 -0.146200
										CHANNELS 3 Xrotation Yrotation Zrotation
										JOINT RightForeArm
										{
											OFFSET -18.448900 0.000000 0.000000
											CHANNELS 3 Xrotation Yrotation Zrotation
											JOINT RightHand
											{
												OFFSET -29.527802 0.000000 0.000000
												CHANNELS 3 Xrotation Yrotation Zrotation
												End Site
												{
													OFFSET 0 0 0
												}
											}
										}
									}
								}
							}
						}
					}
				}
			}
		}
	}
}
MOTION
Frames: 4
Frame Time: 0.03333333
3.688077 261.857330 -16.290836 0.000000 0.000000 0.000000 -10.288891 18.601863 12.929471 -19.460775 36.867141 10.844623 2.020464 -14.576261 -2.050126 20.617254 -0.071010 -9.279527 -0.809628 -1.514311 7.702275 0.000000 0.000000 0.000000 -6.308412 11.434203 11.253399 4.477789 3.765464 -4.226875 -16.177373 11.975184 2.017463 -8.312578 4.111979 3.756883 4.401861 -1.216648 -17.550181 0.000000 0.000000 0.000000 -3.990918 17.455744 10.482751 -0.513997 -4.850210 2.469008 9.246923 1.585401 3.680857 0.138500 0.404091 -0.096200 0.000000 0.000000 0.000000 10.741038 4.585182 3.059670 1.198907 0.155738 -11.333938 -16.916849 -40.653638 -31.921511 0.000000 0.000000 0.000000 9.537497 3.263649 2.123543 0.651004 7.762164 -4.640223 10.699347 -7.446657 0.668905 10.515187 -1.331850 -56.450438 4.417587 -38.472297 -2.678997 0.000000 0.000000 0.000000 10.128138 3.290080 3.216610 -4.653238 3.954261 7.476526 5.914109 1.333455 2.172305 3.182265 5.862899 50.042597 -11.400175 35.389341 10.586058 0.000000 0.000000 0.000000 
3.599922 261.750793 -16.785488 0.000000 0.000000 0.000000 -10.382091 18.964420 12.916991 -19.475610 36.505025 10.918380 2.336216 -14.393616 -1.943974 20.396864 0.058619 -9.291257 -0.625100 -1.566520 7.787819 0.000000 0.000000 0.000000 -6.451745 11.861537 11.181151 4.220234 3.486285 -4.037033 -16.084091 11.903808 1.952845 -8.313210 4.163469 3.482459 4.019983 -1.125048 -17.716379 0.000000 0.000000 0.000000 -4.136782 17.507706 10.536265 -0.589955 -4.852052 2.543201 9.203066 1.600761 3.666502 0.097025 0.363338 -0.091981 0.000000 0.000000 0.000000 10.655763 4.605466 2.995177 0.914817 0.170201 -11.397946 -16.758043 -40.160911 -31.685073 0.000000 0.000000 0.000000 9.529627 3.246365 2.122108 0.625736 7.491575 -4.348067 10.289662 -6.745532 0.337904 9.823360 -1.387844 -56.311580 4.419176 -38.340037 -2.610814 0.000000 0.000000 0.000000 10.138147 3.280541 3.184319 -4.653451 3.720393 7.206780 6.174207 1.294559 1.905042 3.367365 6.494307 49.692765 -11.729734 36.432492 10.892215 0.000000 0.000000 0.000000 
3.437814 261.335876 -17.122463 0.000000 0.000000 0.000000 -10.269955 19.416058 12.789058 -19.758665 36.458098 10.991775 2.676291 -13.744736 -1.800835 19.303108 0.816502 -8.818200 -0.798590 -1.618961 7.909590 0.000000 0.000000 0.000000 -6.324563 12.324338 11.024178 3.585164 2.849851 -3.908002 -15.228887 11.834250 1.912857 -8.639015 4.449596 3.484713 3.306203 -0.891436 -18.165931 0.000000 0.000000 0.000000 -3.880360 17.893453 10.402263 -0.719459 -4.784653 2.651711 9.104365 1.521772 3.663600 0.067132 0.275432 -0.107208 0.000000 0.000000 0.000000 10.562229 4.568233 2.971032 0.281255 0.339026 -11.455981 -16.492095 -39.628174 -31.325498 0.000000 0.000000 0.000000 9.457102 3.169197 2.203841 0.601568 7.389695 -4.152238 9.976106 -6.115928 0.041565 9.137360 -1.635730 -56.156149 4.473707 -38.499731 -2.368795 0.000000 0.000000 0.000000 10.086081 3.168350 3.161253 -4.623892 3.541264 6.699375 6.444486 1.000411 1.953339 4.730484 8.528125 49.121549 -11.968395 37.779904 10.936245 0.000000 0.000000 0.000000 
3.254247 260.648071 -17.340435 0.000000 0.000000 0.000000 -9.953713 19.817517 12.555093 -20.451970 36.679543 11.041505 3.379815 -12.971037 -1.599413 17.758405 1.770950 -8.032774 -1.233131 -1.654398 8.024607 0.000000 0.000000 0.000000 -5.979148 12.857465 10.803098 2.674254 1.887771 -3.871984 -13.973687 11.717938 1.877760 -9.537261 4.854701 3.682602 2.934117 -0.635785 -18.763196 0.000000 0.000000 0.000000 -3.214128 18.551810 10.094555 -0.882486 -4.650374 2.718376 8.989333 1.342138 3.673248 0.067937 0.146241 -0.118698 0.000000 0.000000 0.000000 10.510787 4.471318 2.983752 -0.607608 0.642768 -11.462940 -16.221011 -39.044800 -30.816447 0.000000 0.000000 0.000000 9.341074 3.042810 2.346626 0.591859 7.450051 -4.102498 9.780706 -5.797989 -0.037534 8.461984 -2.241966 -55.899228 4.497245 -38.862062 -2.048422 0.000000 0.000000 0.000000 9.967284 2.960862 3.149797 -4.580791 3.455862 6.110339 6.655953 0.447540 2.158615 7.014318 11.531583 48.246073 -12.198580 39.517463 10.791355 0.000000 0.000000 0.000000 
